<?xml version="1.0" encoding="UTF-8" standalone="no"?>
<!DOCTYPE svg PUBLIC "-//W3C//DTD SVG 1.1//EN" "http://www.w3.org/Graphics/SVG/1.1/DTD/svg11.dtd">
<svg width="100%" height="100%" viewBox="0 0 2161 1687" version="1.1" xmlns="http://www.w3.org/2000/svg" xmlns:xlink="http://www.w3.org/1999/xlink" xml:space="preserve" xmlns:serif="http://www.serif.com/" style="fill-rule:evenodd;clip-rule:evenodd;stroke-linejoin:round;stroke-miterlimit:2;">
    <g transform="matrix(1,0,0,1,0,-2153)">
        <path id="Mid-Mountains" serif:id="Mid Mountains" d="M0,2153C0,2153 4.884,2153.26 51,2180C129.807,2225.7 236.012,2336.89 280,2368C323.988,2399.11 396.602,2471.28 461,2498C525.398,2524.72 607.574,2570.64 656,2579C704.426,2587.36 750.871,2597.32 803,2587C855.129,2576.68 894.168,2581.33 968,2560C1041.83,2538.67 1120.7,2535.66 1136,2525C1151.3,2514.34 1155.96,2516.65 1224,2471C1292.04,2425.35 1310.48,2397.89 1385,2373C1459.52,2348.11 1538,2334 1538,2334C1538,2334 1569.21,2341.62 1600,2368C1630.79,2394.38 1655.97,2426.27 1687,2433C1718.03,2439.73 1765,2447 1765,2447C1765,2447 1804.29,2451.03 1841,2430C1877.71,2408.97 1871.37,2414.04 1901,2387C1930.63,2359.96 1957.03,2339.52 2010,2287C2062.97,2234.48 2129.88,2185.79 2160,2165C2160.06,2164.99 2160,3840 2160,3840L0,3840L0,2153Z" style="fill:url(#_Linear1);"/>
    </g>
    <defs>
        <linearGradient id="_Linear1" x1="0" y1="0" x2="1" y2="0" gradientUnits="userSpaceOnUse" gradientTransform="matrix(1.03299e-13,-1687,1687,1.03299e-13,1277.44,3428.54)"><stop offset="0" style="stop-color:black;stop-opacity:1"/><stop offset="0.22" style="stop-color:rgb(2,0,6);stop-opacity:1"/><stop offset="0.42" style="stop-color:rgb(7,2,25);stop-opacity:1"/><stop offset="0.63" style="stop-color:rgb(21,6,60);stop-opacity:1"/><stop offset="0.67" style="stop-color:rgb(21,6,63);stop-opacity:1"/><stop offset="0.72" style="stop-color:rgb(25,8,62);stop-opacity:1"/><stop offset="0.78" style="stop-color:rgb(31,10,67);stop-opacity:1"/><stop offset="0.83" style="stop-color:rgb(44,15,73);stop-opacity:1"/><stop offset="0.89" style="stop-color:rgb(53,22,82);stop-opacity:1"/><stop offset="0.94" style="stop-color:rgb(68,28,91);stop-opacity:1"/><stop offset="0.95" style="stop-color:rgb(70,29,92);stop-opacity:1"/><stop offset="0.98" style="stop-color:rgb(80,32,98);stop-opacity:1"/><stop offset="1" style="stop-color:rgb(82,33,99);stop-opacity:1"/></linearGradient>
    </defs>
</svg>
